<?xml version="1.0" encoding="UTF-8"?>
<svg version="1.1" xmlns="http://www.w3.org/2000/svg" viewBox="0 0 3919 3919" style="background:transparent">
<defs>
<mask id="dm">
<rect width="3919" height="3919" fill="white"/>
<path d="M1960,2450 L2150,2750 L1960,3050 L1770,2750 Z" fill="black"/>
</mask>
</defs>
<g mask="url(#dm)">
<path d="M0 0 C1.78225289 0.94265436 3.56106315 1.89181969 5.33837891 2.84375 C6.32931549 3.37162109 7.32025208 3.89949219 8.34121704 4.44335938 C11.4223525 6.24727519 13.30069787 8.10141188 15.375 11 C18.90485575 15.65356882 22.62283258 19.94416979 26.625 24.1875 C30.00350202 27.78181471 33.36614934 31.36596658 36.5625 35.125 C39.60435719 38.64715043 42.84391043 41.95252732 46.125 45.25 C46.62845947 45.75805176 47.13191895 46.26610352 47.65063477 46.78955078 C49.8837435 49.01346372 52.12406687 51.09728182 54.60546875 53.04296875 C57.2097254 55.17140689 59.11243028 57.41902469 61.1875 60.0625 C65.17462318 65.03811128 69.36025217 69.7657654 73.671875 74.4609375 C77.75296323 78.91178876 81.70675531 83.4671332 85.60546875 88.078125 C91.60842043 95.16073696 97.76810067 102.04771882 104.13232422 108.80810547 C107.58023182 112.47144718 110.95509867 116.17581986 114.23828125 119.98828125 C117.04340963 123.19147662 119.93639824 126.31431006 122.82202148 129.44482422 C125.66871838 132.53596626 128.47043076 135.66057337 131.25 138.8125 C135.16870115 143.19637071 139.31384129 147.3127204 143.5 151.4375 C148.74107137 156.60660713 153.52499454 161.86221218 158.0859375 167.64453125 C160.33560171 170.41299557 162.78017692 172.86961888 165.33984375 175.34765625 C167.6693896 177.66623953 169.78019156 180.15270527 171.92578125 182.640625 C174.52629095 185.59864357 177.19731019 188.48692625 179.875 191.375 C184.20331625 196.04537774 188.49025266 200.74842846 192.73828125 205.4921875 C195.22046041 208.24444833 197.73478704 210.96540806 200.25 213.6875 C203.22565087 216.90821672 206.15419855 220.15686738 208.9921875 223.5 C215.65723225 231.35117897 222.62388379 238.70853836 229.9675293 245.9309082 C234.64818771 250.56363634 238.89989491 255.27597385 242.96484375 260.4609375 C245.2021485 263.25220062 247.57457908 265.87091778 250 268.5 C253.23597755 272.01434121 256.32634807 275.58390445 259.3125 279.3125 C263.94936557 285.06122498 268.9601463 290.41240163 274.0078125 295.796875 C277.89821565 299.94823442 281.62572759 304.22578565 285.32470703 308.54785156 C293.12287407 317.65039286 301.12757212 326.50699998 309.34521484 335.23193359 C311.90227007 337.96403657 314.41941046 340.7320304 316.9375 343.5 C319.76630398 346.60136028 322.60913337 349.64325153 325.625 352.5625 C328.33087847 355.21744429 330.69391875 358.04035994 333.0625 361 C337.45495452 366.46231479 342.1738123 371.55647551 346.97998047 376.65551758 C350.48582065 380.37517496 353.9194906 384.13290553 357.25390625 388.0078125 C359.49838734 390.56862985 361.81339121 393.06251986 364.125 395.5625 C368.28391364 400.06619405 372.32066466 404.6603883 376.3125 409.3125 C381.96437108 415.8902691 387.82891339 422.24160791 393.7734375 428.5546875 C396.52055721 431.4752081 399.20940255 434.44213791 401.875 437.4375 C404.49565064 440.37727046 407.17700601 443.19199996 410 445.9375 C413.80028067 449.68551748 417.11323146 453.72752257 420.45703125 457.8828125 C427.24162071 466.26521212 434.41756074 474.34513983 441.75 482.25 C445.07613047 485.84413522 448.25428891 489.48832813 451.3125 493.3125 C456.16785613 499.3488887 461.46764045 504.92950952 466.77734375 510.5625 C469.67640228 513.64114623 472.48225671 516.78492469 475.23828125 519.9921875 C477.56666202 522.6458188 479.9750361 525.22387125 482.375 527.8125 C486.79034576 532.57732148 490.92356346 537.50690997 494.9296875 542.625 C496.9392506 545.07296618 496.9392506 545.07296618 499.4921875 546.9921875 C502.18693086 549.14966115 504.11727209 551.41564565 506.25 554.125 C509.98888498 558.78929006 513.87385029 563.26153673 517.89453125 567.68359375 C521.91940827 572.11170521 525.83749151 576.62998058 529.71484375 581.1875 C535.1075793 587.52078793 540.55794768 593.77459759 546.20605469 599.88183594 C548.67795335 602.55478954 551.1162303 605.24818985 553.5 608 C556.86525491 611.88050925 560.33715616 615.66022279 563.81469727 619.43969727 C567.45379177 623.39658409 571.05134868 627.38885137 574.63671875 631.39453125 C576.33218825 633.26375135 578.03907304 635.11309276 579.76953125 636.94921875 C585.92585138 643.49771322 591.71911904 650.23727575 597.34130859 657.25048828 C601.09276231 661.92024889 604.97475139 666.42700152 609.0234375 670.84375 C610.8809692 672.87014821 612.69688809 674.92518629 614.5 677 C618.61082427 681.71702877 622.8074226 686.35569709 627 691 C628.50028679 692.66640851 630.00028872 694.33307353 631.5 696 C632.61761719 697.24136719 632.61761719 697.24136719 633.7578125 698.5078125 C635.23292618 700.14739879 636.70691652 701.78799655 638.1796875 703.4296875 C642.7274896 708.49538877 647.30972968 713.52805726 651.91577148 718.54077148 C655.51105703 722.45691919 659.06682252 726.40686913 662.61328125 730.3671875 C664.38818004 732.3250955 666.17527219 734.26571846 667.98046875 736.1953125 C673.00843505 741.57457775 677.85952692 746.93063066 682.29296875 752.8203125 C684.96440242 756.23143375 687.89386409 759.39800304 690.8125 762.59765625 C692.7358228 764.70987682 694.62603523 766.84407294 696.5 769 C699.13689636 772.02754767 701.81016569 775.01937279 704.5 778 C707.76390848 781.61676345 710.98790949 785.26389608 714.1875 788.9375 C717.0326929 792.1751333 719.92853836 795.3668629 722.81640625 798.56640625 C724.70848685 800.67511146 726.57905758 802.79919801 728.4375 804.9375 C731.24822525 808.16559512 734.115799 811.33738443 737 814.5 C740.45575413 818.28934126 743.8652289 822.11083698 747.23046875 825.98046875 C750.77576954 830.02665089 754.39458999 834.00743187 758 838 C762.77468601 843.28740397 767.52934048 848.58748037 772.20703125 853.9609375 C774.17841043 856.20289813 776.18162691 858.41385803 778.1875 860.625 C781.82284521 864.64918518 785.36133312 868.74511773 788.875 872.875 C793.21594714 877.9733628 797.6527921 882.96271531 802.20214844 887.87573242 C804.72841103 890.60485041 807.2034871 893.36518496 809.625 896.1875 C812.14343876 899.10454058 814.80562901 901.80734897 817.5625 904.5 C820.88512109 907.77779652 823.69440135 911.11834177 826.41015625 914.90234375 C828.99106871 918.30762628 831.89808669 921.40925687 834.77734375 924.5625 C836.71344302 926.68574419 838.6153866 928.83116416 840.5 931 C845.50494963 936.73962114 850.58676465 942.41215926 855.7734375 947.98828125 C860.47057433 953.04648831 864.96424492 958.14331701 869.12890625 963.65625 C872.31588771 967.64829358 875.82897062 971.34689103 879.30078125 975.08984375 C884.51197661 980.70828158 889.55468959 986.41702891 894.375 992.375 C898.26158332 997.16978836 902.35962137 1001.71829644 906.5390625 1006.2578125 C908.91039895 1008.90015883 911.15252997 1011.60694167 913.375 1014.375 C917.75944247 1019.80891009 922.45500063 1024.89826018 927.21484375 1030 C929.97346339 1032.95876022 932.64611326 1035.98395085 935.29296875 1039.04296875 C937.33633431 1041.3855915 939.41680859 1043.69273422 941.5 1046 C944.17048344 1048.95869751 946.82298058 1051.92926472 949.4375 1054.9375 C952.19784541 1058.11221597 955.02792558 1061.21537436 957.875 1064.3125 C961.92446364 1068.75168645 965.75282648 1073.31897564 969.52734375 1077.9921875 C972.4168038 1081.50701252 975.38681826 1084.94410851 978.375 1088.375 C983.86000695 1094.67428095 989.27995176 1101.02395881 994.66162109 1107.41162109 C996.91767416 1110.0890894 999.17699337 1112.76379116 1001.4375 1115.4375 C1001.88883301 1115.97133301 1002.34016602 1116.50516602 1002.80517578 1117.05517578 C1006.69021594 1121.64483534 1010.60360864 1126.20984986 1014.52148438 1130.77148438 C1017.84555413 1134.64456178 1021.14747414 1138.5354875 1024.4375 1142.4375 C1028.94370454 1147.77827742 1033.50873161 1153.06600075 1038.09130859 1158.34130859 C1043.26021908 1164.29297038 1048.39144683 1170.27635313 1053.51611328 1176.26611328 C1055.50895471 1178.59470161 1057.50364418 1180.92170262 1059.49853516 1183.24853516 C1060.49712183 1184.41339056 1061.49549528 1185.57842879 1062.49365234 1186.74365234 C1065.02712277 1189.70088522 1067.56357624 1192.65547058 1070.10546875 1195.60546875 C1071.13301854 1196.79930186 1072.16036368 1197.99331114 1073.1875 1199.1875 C1073.69168457 1199.77345947 1074.19586914 1200.35941895 1074.71533203 1200.96313477 C1077.66664479 1204.40568895 1080.54136268 1207.89676279 1083.375 1211.4375 C1088.2195567 1217.41363199 1093.49610082 1222.96024067 1098.76953125 1228.5546875 C1101.71677006 1231.68460293 1104.57812079 1234.87495614 1107.37890625 1238.13671875 C1109.29462311 1240.33863909 1111.27483576 1242.47627124 1113.25 1244.625 C1117.29513272 1249.10133976 1121.00690312 1253.77271619 1124.69775391 1258.53881836 C1128.54014583 1263.4760854 1132.56527085 1268.23067683 1136.65942383 1272.95996094 C1139.66192815 1276.43064742 1142.60861525 1279.93535058 1145.5 1283.5 C1150.36979388 1289.49291752 1155.4021624 1295.33954629 1160.44287109 1301.18847656 C1161.99451936 1302.99362396 1163.53933585 1304.80438559 1165.08203125 1306.6171875 C1169.70815023 1312.04810621 1174.35915511 1317.43378315 1179.1875 1322.6875 C1182.37736844 1326.16136309 1185.42048894 1329.69910025 1188.375 1333.375 C1191.73611962 1337.54824199 1195.26517522 1341.47988092 1198.9375 1345.375 C1203.48647887 1350.2060805 1207.58605046 1355.23190852 1211.56005859 1360.54199219 C1214.2261275 1364.07731401 1217.03733698 1367.17449531 1220.23828125 1370.21875 C1223.25159743 1373.26547323 1225.8610753 1376.64215131 1228.546875 1379.9765625 C1231.15419866 1383.19004739 1233.81776584 1386.34914347 1236.5 1389.5 C1239.83643153 1393.42372622 1243.13271829 1397.37262294 1246.375 1401.375 C1251.02027055 1407.08015403 1255.84156796 1412.62378615 1260.671875 1418.171875 C1265.31714977 1423.5077365 1269.91266222 1428.88604054 1274.51171875 1434.26171875 C1276.01672049 1436.01952918 1277.52367703 1437.77564446 1279.03125 1439.53125 C1296.20385662 1459.53189605 1296.20385662 1459.53189605 1303.375 1468.375 C1308.0185276 1474.0780134 1312.83740409 1479.6198598 1317.66796875 1485.1640625 C1320.34214651 1488.23513391 1322.9895914 1491.32774885 1325.62841797 1494.42919922 C1329.89132917 1499.43759832 1334.21295443 1504.36689159 1338.6875 1509.1875 C1342.85285712 1513.67819513 1346.77906206 1518.31604484 1350.62109375 1523.0859375 C1353.35905153 1526.43982338 1356.17219888 1529.72189795 1359 1533 C1363.3196209 1538.01290176 1367.55098085 1543.08538509 1371.72265625 1548.22265625 C1374.74485223 1551.90838753 1377.83147207 1555.53744822 1380.91870117 1559.16870117 C1383.77859495 1562.53870316 1386.59262982 1565.94035256 1389.375 1569.375 C1393.53923915 1574.4944768 1397.85626937 1579.46950278 1402.19384766 1584.44165039 C1405.44718689 1588.17998611 1408.6324576 1591.95917399 1411.75 1595.8125 C1414.57487839 1599.30235888 1417.47717579 1602.68010514 1420.5 1606 C1423.52282421 1609.31989486 1426.42512161 1612.69764112 1429.25 1616.1875 C1434.53697385 1622.71737647 1440.05223384 1629.04182622 1445.57714844 1635.37011719 C1446.74339712 1636.70606026 1447.90720111 1638.04413712 1449.0703125 1639.3828125 C1450.70604167 1641.26199903 1452.34986495 1643.1334538 1454 1645 C1454.70511719 1645.79792969 1455.41023438 1646.59585938 1456.13671875 1647.41796875 C1459.58713087 1651.290163 1463.03656014 1655.06840935 1466.8125 1658.625 C1471.21031746 1662.944285 1474.72323544 1667.84885744 1478.36645508 1672.79882812 C1482.86288997 1678.88700238 1487.64359501 1684.66250084 1492.59814453 1690.38037109 C1494.04937396 1692.05704404 1495.49246272 1693.74042293 1496.93359375 1695.42578125 C1499.44689423 1698.36480071 1501.96460762 1701.29999146 1504.48388672 1704.23388672 C1506.99100985 1707.15442275 1509.49537328 1710.07732311 1512 1713 C1512.99998659 1714.16667816 1513.9999866 1715.33334482 1515 1716.5 C1533 1737.5 1551 1758.5 1569 1779.5 C1569.4952417 1780.0777417 1569.9904834 1780.6554834 1570.50073242 1781.25073242 C1571.49845195 1782.41481977 1572.49601114 1783.57904456 1573.4934082 1784.7434082 C1576.02698743 1787.70069887 1578.56350137 1790.65538369 1581.10546875 1793.60546875 C1585.69606553 1798.93835322 1590.25761398 1804.28185945 1594.6875 1809.75 C1598.23745321 1814.12507747 1601.95563821 1818.30549192 1605.75 1822.46875 C1608.86932876 1825.97799486 1611.79749133 1829.63162123 1614.75 1833.28125 C1616.93501569 1835.92147729 1619.19171391 1838.4672972 1621.5 1841 C1625.41646423 1845.29723158 1629.08763606 1849.75299931 1632.7421875 1854.2734375 C1634.96792156 1856.96126167 1637.27182262 1859.54847019 1639.625 1862.125 C1642.32014723 1865.08455926 1644.8866164 1868.06639489 1647.3125 1871.25 C1652.25871977 1877.73479043 1657.66745211 1883.83327413 1663 1890 C1669.10184806 1897.06341968 1675.16209162 1904.13057866 1680.953125 1911.453125 C1684.73300942 1916.15633996 1688.6654355 1920.73267142 1692.57666016 1925.32666016 C1694.89004022 1928.04636976 1697.1946168 1930.7735122 1699.5 1933.5 C1700.4179396 1934.58466009 1701.33590837 1935.66929549 1702.25390625 1936.75390625 C1704.07544632 1938.90651786 1705.89565329 1941.06024619 1707.71484375 1943.21484375 C1712.43681629 1948.80538103 1717.17387849 1954.38238922 1721.9375 1959.9375 C1722.43338623 1960.51588623 1722.92927246 1961.09427246 1723.44018555 1961.69018555 C1726.00397687 1964.67871758 1728.57184181 1967.66365557 1731.14453125 1970.64453125 C1736.90286457 1977.32495356 1742.54388541 1984.06825441 1748 1991 C1754.50655191 1999.16229475 1761.14592543 2007.20452928 1767.90795898 2015.15551758 C1770.85850377 2018.63108501 1773.75609865 2022.14385704 1776.625 2025.6875 C1780.17842642 2030.05512182 1783.89167099 2034.23816532 1787.6796875 2038.40234375 C1793.32446438 2044.72183301 1798.66872178 2051.30314048 1803.9375 2057.9375 C1807.52969937 2062.46047168 1811.25514075 2066.85839848 1815.00366211 2071.25146484 C1817.59071996 2074.29522081 1820.09123881 2077.37392403 1822.5 2080.5625 C1825.78230931 2084.86208677 1829.40035853 2088.80680877 1833.09375 2092.75219727 C1834.40692411 2094.15785176 1835.70376638 2095.57870862 1837 2097 C1837.79019531 2097.84046875 1838.58039063 2098.6809375 1839.39453125 2099.546875 C1841 2102 1841 2102 1840.96875 2104.3671875 C1839.72079102 2107.75881795 1838.2060852 2110.94623408 1836.5 2114.125 C1835.96596558 2115.12067993 1835.96596558 2115.12067993 1835.42114258 2116.13647461 C1832.56909748 2121.28805487 1829.24995478 2125.75207884 1825.3984375 2130.21484375 C1822.76238886 2133.27592303 1820.28625116 2136.43294745 1817.8125 2139.625 C1813.61082884 2145.01390493 1809.29869954 2150.30210833 1804.9375 2155.5625 C1799.60804219 2161.99870735 1794.45034798 2168.52799495 1789.39257812 2175.18066406 C1785.95997547 2179.66519334 1782.47207154 2184.10741425 1778.99609375 2188.55834961 C1776.24122757 2192.09257376 1773.50940908 2195.64000397 1770.828125 2199.23046875 C1767.2695416 2203.99441664 1763.52349928 2208.59278955 1759.75 2213.1875 C1756.7800515 2216.80879564 1753.84285853 2220.45175578 1750.9375 2224.125 C1748.3604898 2227.3616021 1745.70712133 2230.48928556 1742.9375 2233.5625 C1738.29627154 2238.7234731 1733.91616116 2244.05789422 1730.125 2249.87890625 C1727.86670846 2253.19577195 1725.37274193 2256.22287661 1722.75 2259.25 C1718.81795602 2263.84301733 1714.97076825 2268.48358586 1711.21484375 2273.22265625 C1708.95222268 2276.05991124 1706.66373939 2278.87457838 1704.37011719 2281.68676758 C1698.27420398 2289.16160253 1692.26601626 2296.69788688 1686.32958984 2304.29980469 C1684.56838664 2306.55191984 1682.79935422 2308.79782412 1681.03051758 2311.04394531 C1676.23148058 2317.14023154 1671.45467754 2323.25377533 1666.6875 2329.375 C1666.11281982 2330.11202148 1665.53813965 2330.84904297 1664.94604492 2331.60839844 C1662.21655102 2335.11689995 1659.52421054 2338.6425438 1656.89453125 2342.2265625 C1654.49672869 2345.44134161 1651.8631032 2348.18534931 1649 2351 C1646.73494295 2353.59951934 1644.55464999 2356.26622454 1642.375 2358.9375 C1641.75818359 2359.69039307 1641.14136719 2360.44328613 1640.50585938 2361.21899414 C1634.90803592 2368.07227568 1629.42868563 2375.01245664 1624 2382 C1622.89985459 2383.41284997 1621.79958841 2384.82560592 1620.69921875 2386.23828125 C1617.12968872 2390.82309527 1613.56451544 2395.41128686 1610 2400 C1605.87987411 2405.303968 1601.75736449 2410.60605061 1597.62988281 2415.90429688 C1596.08021825 2417.89685539 1594.53573859 2419.89332929 1592.9921875 2421.890625 C1588.30182144 2427.93845332 1583.47378971 2433.76304306 1578.29296875 2439.40234375 C1575.18053467 2442.92835511 1572.31458115 2446.62345464 1569.43530273 2450.34033203 C1565.73845527 2455.0995066 1561.91816248 2459.74398831 1558.0625 2464.375 C1553.04150597 2470.42526034 1548.22381151 2476.58630026 1543.54370117 2482.90307617 C1539.14672441 2488.83444118 1534.62825944 2494.6652616 1530.08129883 2500.48217773 C1527.43703173 2503.86567859 1524.79845732 2507.25156465 1522.20703125 2510.67578125 C1517.7692625 2516.53687389 1513.18429055 2522.13768488 1508.20703125 2527.55078125 C1505.13741595 2530.95723929 1502.2708473 2534.51448973 1499.38671875 2538.078125 C1496.77609046 2541.27411511 1494.11260094 2544.42054427 1491.4375 2547.5625 C1483.04527002 2557.42944357 1483.04527002 2557.42944357 1475.3125 2567.8125 C1473 2571 1473 2571 1470.7421875 2573.19921875 C1467.43081554 2576.58134652 1464.65038288 2580.21983145 1461.8125 2584 C1460.6576691 2585.52352621 1459.50272002 2587.04696284 1458.34765625 2588.5703125 C1457.78062988 2589.32086914 1457.21360352 2590.07142578 1456.62939453 2590.84472656 C1449.42856037 2600.36959381 1442.03739201 2609.70995183 1434.42089844 2618.90673828 C1427.89628382 2626.7895608 1421.40505414 2634.68626387 1415.1159668 2642.75878906 C1411.61594703 2647.24280927 1408.03709237 2651.65816334 1404.4375 2656.0625 C1395.94431643 2666.46683761 1387.71824589 2677.09200841 1379.84765625 2687.9765625 C1379.07292969 2689.03617188 1378.29820313 2690.09578125 1377.5 2691.1875 C1376.7884375 2692.17105469 1376.076875 2693.15460937 1375.34375 2694.16796875 C1373.23916469 2696.71100934 1371.07473409 2698.56614609 1368.50830078 2700.61303711 C1365.67792657 2703.21571693 1363.75809788 2706.47395335 1361.6875 2709.6875 C1351.59122352 2724.83105342 1340.26629698 2737.55300558 1322 2741.8125 C1314.14090357 2743.31310417 1307.07721052 2743.18840681 1299.15187073 2742.49246216 C1291.64162631 2741.91070515 1284.16121138 2741.85896674 1276.63256836 2741.87060547 C1275.12901264 2741.86925878 1273.62545725 2741.86748985 1272.12190247 2741.86533833 C1268.04847549 2741.86083318 1263.97507375 2741.86260205 1259.90164638 2741.86573768 C1256.43585094 2741.8676991 1252.9700603 2741.86622237 1249.50426489 2741.8647396 C1240.21337002 2741.86078017 1230.92249015 2741.8639614 1221.6315971 2741.87018651 C1214.87313025 2741.87450822 1208.11466923 2741.87548856 1201.35620117 2741.87466431 C1163.25823888 2741.87106992 1125.16219823 2741.89228358 1087.06640625 2742.33203125 C1085.7785063 2742.34651306 1084.49060635 2742.36099487 1083.16367912 2742.37591553 C1071.40841004 2742.50898207 1059.65364608 2742.65537831 1047.89929867 2742.85467625 C1043.76138811 2742.92242641 1039.62337193 2742.97859572 1035.4852581 2743.03232384 C1032.74251257 2743.07249751 1030.00049001 2743.1295716 1027.2580719 2743.18745422 C1013.89093539 2743.3965534 1002.32197116 2741.6384417 992.09765625 2732.25390625 C987.82603366 2727.5948349 984.54507468 2722.30592708 981.10546875 2717.0234375 C978.40695794 2713.14839601 975.36668009 2709.74080938 972.140625 2706.30078125 C970.2242786 2704.24105857 968.46057186 2702.11941124 966.6875 2699.9375 C963.81032323 2696.57744042 960.63243328 2694.26337309 957 2691.75 C951.60023556 2687.8338342 948.94443778 2684.13796814 945.88671875 2678.2890625 C943.68534737 2674.45147513 941.11443422 2671.16076053 938.3125 2667.75 C934.09644396 2662.60935291 930.01423094 2657.40942057 926.0625 2652.0625 C920.95126044 2645.17431262 915.59870261 2638.51327495 910.1640625 2631.87890625 C901.44226863 2621.22218002 893.09292937 2610.2639024 884.72216797 2599.33105469 C878.57916995 2591.30954231 872.40203741 2583.32123679 865.9609375 2575.53515625 C861.42610313 2570.05212924 857.05094944 2564.48004659 852.75 2558.8125 C845.58015271 2549.37172708 838.10126097 2540.20024645 830.5703125 2531.046875 C826.57107582 2526.17947662 822.62995339 2521.27505435 818.75 2516.3125 C813.08534948 2509.06820632 807.29426625 2501.93026558 801.4765625 2494.80859375 C800.16952459 2493.2076452 798.86576644 2491.60402024 797.5625 2490 C793.59238083 2485.12242502 789.56992222 2480.29424228 785.5 2475.5 C778.22402207 2466.92554759 771.15099442 2458.21015588 764.23535156 2449.34326172 C760.54910216 2444.64220046 756.71977904 2440.07845846 752.83984375 2435.53686523 C749.78069834 2431.94795736 746.85228504 2428.28881477 743.984375 2424.546875 C741.32855663 2421.13822623 738.60306627 2417.78845076 735.875 2414.4375 C735.3171582 2413.75212158 734.75931641 2413.06674316 734.18457031 2412.3605957 C731.8966773 2409.55151363 729.60705174 2406.74384966 727.31640625 2403.93701172 C725.66830873 2401.91712279 724.0212623 2399.89638493 722.375 2397.875 C721.56470337 2396.88028687 721.56470337 2396.88028687 720.73803711 2395.86547852 C717.25243395 2391.57465524 713.83086107 2387.23894322 710.4375 2382.875 C706.74908531 2378.13619769 702.93403317 2373.53669088 699 2369 C694.81139347 2364.16430614 690.72517939 2359.26308523 686.75 2354.25 C686.27175781 2353.65316406 685.79351563 2353.05632813 685.30078125 2352.44140625 C682 2348.23952151 682 2348.23952151 682 2346 C681.34 2346 680.68 2346 680 2346 C678.44195889 2344.13705847 676.9961672 2342.26817903 675.5625 2340.3125 C672.09242131 2335.68425412 668.53017378 2331.19085971 664.75 2326.8125 C659.74611855 2320.98820744 655.03618747 2314.96053641 650.34619141 2308.88208008 C644.81120189 2301.72053397 639.11031037 2294.70293977 633.38085938 2287.69677734 C631.52595217 2285.4174978 629.69988077 2283.1158556 627.875 2280.8125 C625.3880688 2277.68829268 622.84031533 2274.62785766 620.24194336 2271.59570312 C613.39880638 2263.60735819 606.97243762 2255.31979566 600.54492188 2246.99560547 C596.30940653 2241.52450837 592.02347252 2236.11944692 587.4375 2230.9375 C584.47903239 2227.59343436 581.72003315 2224.13734224 579 2220.59765625 C576.60423332 2217.48596711 574.1786376 2214.39855784 571.75 2211.3125 C568.9303593 2207.728784 566.1112761 2204.14473395 563.3046875 2200.55078125 C558.47635254 2194.37467577 553.58998594 2188.2544164 548.625 2182.1875 C544.09135428 2176.6470509 539.69455415 2171.02121557 535.375 2165.3125 C530.24488387 2158.54304378 524.90876317 2152.00730129 519.36035156 2145.578125 C507.02250641 2131.26516177 507.02250641 2131.26516177 501.78125 2124.23828125 C499.94974477 2121.86701944 499.94974477 2121.86701944 497.46875 2119.35546875 C491.1610347 2112.56327532 491.1610347 2112.56327532 490.74609375 2108.53515625 C492.62245834 2100.5509014 498.88194714 2094.17421173 504 2088 C505.06662927 2086.69134574 506.13168835 2085.38141038 507.1953125 2084.0703125 C508.85169012 2082.02868502 510.50948991 2079.9884043 512.17456055 2077.95385742 C515.60095906 2073.7613265 518.92551893 2069.50866705 522.1875 2065.1875 C526.07017063 2060.09228013 530.21557572 2055.36576573 534.5703125 2050.671875 C537.74029535 2047.18591315 540.69253373 2043.54733919 543.65234375 2039.8828125 C546.22815611 2036.71983493 548.85719643 2033.60695023 551.5 2030.5 C556.4048022 2024.72383339 561.22347553 2018.88290793 566 2013 C567.04423454 2011.71481426 568.08850794 2010.4296601 569.1328125 2009.14453125 C569.68364502 2008.46648437 570.23447754 2007.7884375 570.80200195 2007.08984375 C571.93310453 2005.6977175 573.06445183 2004.30579006 574.19604492 2002.9140625 C576.63011704 1999.92003617 579.06118576 1996.92397549 581.48046875 1993.91796875 C585.98787675 1988.34154717 590.69016883 1983.01207445 595.54296875 1977.734375 C598.66667915 1974.25806772 601.59143321 1970.64274936 604.52734375 1967.0078125 C607.41680589 1963.49298494 610.38688094 1960.0559488 613.375 1956.625 C621.62949527 1947.14187841 629.75037179 1937.56382895 637.6875 1927.8125 C640.72200191 1924.12188957 643.81426558 1920.48206633 646.90966797 1916.8425293 C649.85958904 1913.36756977 652.75664406 1909.85546927 655.625 1906.3125 C659.20222179 1901.91417214 662.94597541 1897.70701146 666.76171875 1893.515625 C669.80758587 1890.09234677 672.67526477 1886.53684698 675.55859375 1882.9765625 C678.28530483 1879.65215635 681.07080022 1876.38401965 683.875 1873.125 C692.71087927 1862.85206119 701.45541349 1852.51746079 710 1842 C711.06754668 1840.69127437 712.13526676 1839.38269017 713.203125 1838.07421875 C714.34390338 1836.67460417 715.48452661 1835.27486312 716.625 1833.875 C717.18767578 1833.18510986 717.75035156 1832.49521973 718.33007812 1831.78442383 C721.24799562 1828.19602264 724.09956453 1824.57558063 726.875 1820.875 C728.86399202 1818.28151041 730.83582433 1816.17942395 733.375 1814.125 C737.32970344 1810.91563978 740.31417004 1807.09500997 743.48046875 1803.125 C746.23558704 1799.67641656 749.11440834 1796.33951007 752 1793 C756.32007135 1787.98749649 760.55099392 1782.91459881 764.72265625 1777.77734375 C767.28204054 1774.65603633 769.88593791 1771.5754997 772.5 1768.5 C775.87283589 1764.53096457 779.21176645 1760.53982979 782.5 1756.5 C786.24852646 1751.8946675 790.07084246 1747.35795556 793.91625977 1742.83374023 C796.7954532 1739.44045891 799.63204237 1736.01732214 802.4375 1732.5625 C806.39508188 1727.69870975 810.46542446 1722.94118769 814.55834961 1718.19165039 C817.58945289 1714.66701081 820.56985316 1711.10960118 823.5 1707.5 C826.93208946 1703.27206371 830.44577194 1699.1249556 834 1695 C843.25612671 1684.36322435 843.25612671 1684.36322435 851.75 1673.125 C853.95748372 1670.05905039 856.33095343 1667.66515584 859 1665 C860.73373628 1663.0367192 862.44077395 1661.06691408 864.125 1659.0625 C864.59583008 1658.50546387 865.06666016 1657.94842773 865.55175781 1657.37451172 C869.05386796 1653.2019578 872.41613381 1648.93244757 875.75 1644.625 C878.98178802 1640.45130922 882.28264684 1636.58942894 886.125 1632.96875 C888.8077623 1630.15184958 891.12789759 1627.07958555 893.5 1624 C896.91768361 1619.5667167 900.34965016 1615.4123922 904.41015625 1611.54296875 C907.48698599 1608.55685635 910.21431871 1605.25512017 913 1602 C914.03634442 1600.79287095 915.07281338 1599.5858488 916.109375 1598.37890625 C919.07633153 1594.92218582 922.03898491 1591.46181074 925 1588 C921.58197326 1583.17970588 918.00700982 1578.87011169 913.765625 1574.7578125 C911.40946195 1572.41207495 909.27028392 1569.90820828 907.10546875 1567.38671875 C905.40692884 1565.46128668 903.68247537 1563.57867416 901.92578125 1561.70703125 C901.38268311 1561.12711426 900.83958496 1560.54719727 900.2800293 1559.94970703 C899.19034375 1558.78945474 898.09684269 1557.63277223 896.99926758 1556.47998047 C894.67741575 1554.00289179 893.0870252 1552.2610756 892 1549 C891.34 1549 890.68 1549 890 1549 C888.80078125 1547.59375 888.80078125 1547.59375 887.3125 1545.5 C883.71094471 1540.72057758 879.7341675 1536.40144813 875.625 1532.0625 C874.9652417 1531.36560059 874.3054834 1530.66870117 873.62573242 1529.95068359 C872.33265826 1528.58531782 871.0394497 1527.22007932 869.74609375 1525.85498047 C866.78912819 1522.71361801 863.90970078 1519.5052168 861.0390625 1516.28515625 C859.62608698 1514.7016492 858.20352092 1513.12666767 856.7734375 1511.55859375 C852.91117672 1507.31807031 849.16836133 1503.02388203 845.5625 1498.5625 C841.70579235 1493.79359715 837.63540354 1489.27485656 833.48046875 1484.765625 C830.99535768 1481.99482399 828.64555667 1479.14948638 826.3125 1476.25 C823.82893671 1473.1705555 821.3457756 1470.24764541 818.5 1467.5 C815.69474298 1464.79103326 813.25370468 1461.91664461 810.8125 1458.875 C806.36416253 1453.34689514 801.61048381 1448.17221045 796.7734375 1442.98828125 C794.63645686 1440.6964159 792.54776652 1438.37241243 790.5 1436 C787.46717351 1432.49490856 784.33590957 1429.08839263 781.1875 1425.6875 C780.67018311 1425.12820801 780.15286621 1424.56891602 779.61987305 1423.99267578 C777.18723198 1421.3631012 774.75389928 1418.73416817 772.3203125 1416.10546875 C767.49978633 1410.85695194 762.89433959 1405.49410373 758.4140625 1399.953125 C752.24513151 1392.40666573 745.87057427 1385.02294815 739.3125 1377.8125 C736.30185521 1374.4991692 733.43434822 1371.11058071 730.625 1367.625 C726.46437925 1362.48241457 722.05643696 1357.62548263 717.5625 1352.77734375 C714.90133655 1349.89306447 712.31300992 1346.95662867 709.7421875 1343.9921875 C707.68499601 1341.63979365 705.59403085 1339.31965034 703.5 1337 C700.84886006 1334.06321535 698.21709829 1331.11397458 695.625 1328.125 C693.13467327 1325.25910195 690.58208342 1322.45903143 687.99975586 1319.67578125 C683.50644676 1314.82755645 679.23914276 1309.89932745 675.15625 1304.6953125 C669.14508974 1297.18136217 662.78534163 1289.93036256 656.3125 1282.8125 C653.3208184 1279.52057795 650.47475577 1276.15408693 647.6875 1272.6875 C643.79679292 1267.87334412 639.66999534 1263.35075666 635.44213867 1258.83666992 C631.54031611 1254.64706391 627.92689822 1250.27845286 624.34375 1245.8125 C621.18196559 1242.01835871 617.81454636 1238.43716235 614.43920898 1234.83374023 C611.34219916 1231.508452 608.40378316 1228.11280061 605.5625 1224.5625 C602.05356678 1220.187478 598.34153921 1216.07980841 594.5 1212 C589.8533639 1207.06482764 585.48073751 1202.00524355 581.2421875 1196.7109375 C578.32276258 1193.18117985 575.21494642 1189.84093155 572.09423828 1186.4909668 C569.0089351 1183.15821125 566.09820488 1179.72838056 563.25 1176.1875 C560.23631467 1172.44452427 557.12180588 1169.00321578 553.671875 1165.6640625 C551.27251672 1163.27591618 549.08612601 1160.72170625 546.875 1158.16015625 C543.31025636 1154.05327451 539.64392852 1150.03654035 536 1146 C534.49971321 1144.33359149 532.99971128 1142.66692647 531.5 1141 C530.38238281 1139.75863281 530.38238281 1139.75863281 529.2421875 1138.4921875 C527.76707382 1136.85260121 526.29308348 1135.21200345 524.8203125 1133.5703125 C524.09585938 1132.76335937 523.37140625 1131.95640625 522.625 1131.125 C521.89152344 1130.30773438 521.15804687 1129.49046875 520.40234375 1128.6484375 C518.65672777 1126.72400232 516.90090825 1124.81385594 515.12890625 1122.9140625 C514.64019043 1122.38796387 514.15147461 1121.86186523 513.64794922 1121.31982422 C512.26196751 1119.83004448 510.8713471 1118.3445842 509.48046875 1116.859375 C507.03009043 1114.03468692 505.03919367 1111.12925044 503 1108 C497.10095007 1100.35667247 490.67955798 1093.12100813 484.33984375 1085.84375 C481.11945435 1082.14512201 477.93287356 1078.41840447 474.75 1074.6875 C471.32573395 1070.67640744 467.86272725 1066.71344294 464.3125 1062.8125 C461.30185521 1059.4991692 458.43434822 1056.11058071 455.625 1052.625 C451.94298465 1048.07059077 448.07099643 1043.76252435 444.08422852 1039.47875977 C441.1131325 1036.26736593 438.30053412 1032.97390237 435.5625 1029.5625 C431.19859541 1024.14091657 426.5157847 1019.07157883 421.7734375 1013.984375 C417.48018201 1009.37851774 413.37670578 1004.6189993 409.296875 999.82421875 C408.28146676 998.63262775 407.26583485 997.44122733 406.25 996.25 C405.74033691 995.65147217 405.23067383 995.05294434 404.70556641 994.4362793 C400.33574294 989.33130052 395.79519521 984.40651087 391.1796875 979.5234375 C389.31855807 977.36879662 388.08831922 975.60462915 387 973 C385.68 973 384.36 973 383 973 C383.05888619 1031.50742054 383.13343205 1090.01480477 383.22898628 1148.52217732 C383.24026448 1155.43023065 383.2513963 1162.3382842 383.26245117 1169.24633789 C383.26355374 1169.9337605 383.2646563 1170.62118312 383.26579228 1171.32943672 C383.30144036 1193.59789814 383.32742836 1215.86635806 383.34838969 1238.13483775 C383.37059983 1261.67413577 383.40385369 1285.21338988 383.44870156 1308.75265723 C383.47520437 1322.84980679 383.49290986 1336.94691094 383.49934604 1351.04408417 C383.50460408 1360.71233731 383.52083515 1370.38053332 383.54566566 1380.04875585 C383.55966623 1385.62595305 383.56885681 1391.20304803 383.56500816 1396.7802639 C383.56158824 1401.89128299 383.57201872 1407.00208407 383.59323552 1412.11305854 C383.59848695 1413.95714633 383.59875571 1415.80125686 383.59339563 1417.64534434 C382.9912897 1436.28730635 382.9912897 1436.28730635 391.07177734 1452.20458984 C391.58434082 1452.6733252 392.0969043 1453.14206055 392.625 1453.625 C393.71615756 1454.71091948 394.80467586 1455.79949697 395.890625 1456.890625 C396.42365234 1457.41462891 396.95667969 1457.93863281 397.50585938 1458.47851562 C399.63437381 1460.64598326 401.4974469 1462.98923704 403.375 1465.375 C408.20248657 1471.39173965 413.48270464 1476.94530903 418.76953125 1482.5546875 C421.7128424 1485.68043182 424.56830219 1488.86873161 427.37109375 1492.12109375 C430.85160176 1496.13578045 434.43973477 1500.05613717 438 1504 C439.50028679 1505.66640851 441.00028872 1507.33307353 442.5 1509 C443.24507812 1509.82757812 443.99015625 1510.65515625 444.7578125 1511.5078125 C446.23292618 1513.14739879 447.70691652 1514.78799655 449.1796875 1516.4296875 C453.22208836 1520.93243295 457.28495554 1525.41549036 461.375 1529.875 C461.83704834 1530.37902344 462.29909668 1530.88304688 462.77514648 1531.40234375 C465.08483394 1533.919819 467.39938518 1536.43255332 469.72265625 1538.9375 C475.12095446 1544.77853634 480.36550748 1550.71850211 485.51269531 1556.78198242 C488.82105691 1560.66550151 492.21471424 1564.45071911 495.6875 1568.1875 C499.86494848 1572.69112674 503.81178169 1577.33714883 507.66015625 1582.125 C509.39381418 1584.25517068 511.14567076 1586.35380859 512.93359375 1588.4375 C513.43246094 1589.01959229 513.93132813 1589.60168457 514.4453125 1590.20141602 C515.4173276 1591.33230597 516.39244095 1592.46054264 517.37109375 1593.58569336 C519.68049163 1596.27817269 521.49378874 1598.79838945 523 1602 C522.40312378 1602.71748413 522.40312378 1602.71748413 521.79418945 1603.44946289 C519.96447817 1605.65176026 518.13847382 1607.85710304 516.3125 1610.0625 C515.37374023 1611.19075195 515.37374023 1611.19075195 514.41601562 1612.34179688 C511.56487842 1615.79003087 508.7768013 1619.23960928 506.19921875 1622.8984375 C504.02580427 1625.96360818 501.68443552 1628.38267536 499 1631 C498.09437282 1632.09614817 497.1985125 1633.20043739 496.3125 1634.3125 C495.549375 1635.199375 494.78625 1636.08625 494 1637 C493.34 1637 492.68 1637 492 1637 C491.67708984 1637.78697266 491.67708984 1637.78697266 491.34765625 1638.58984375 C489.47138895 1641.94537106 486.96506735 1644.69083313 484.4375 1647.5625 C483.34144897 1648.82335107 482.24640511 1650.08507833 481.15234375 1651.34765625 C480.61335449 1651.96914551 480.07436523 1652.59063477 479.51904297 1653.23095703 C477.46864567 1655.61880319 475.48066779 1658.05414785 473.5 1660.5 C470.1158096 1664.67220585 466.64046083 1668.75146917 463.125 1672.8125 C459.13762792 1677.42484808 455.29262059 1682.11500638 451.5625 1686.9375 C447.13400343 1692.65911757 442.47883452 1698.14273586 437.71313477 1703.58544922 C433.01349835 1708.95706666 428.48879854 1714.45055708 424 1720 C421.36697604 1723.21490771 418.67901794 1726.37716781 415.9375 1729.5 C407.44901249 1739.17760753 399.15071709 1748.99578004 391.00390625 1758.96264648 C387.90676884 1762.73663889 384.76088579 1766.42096915 381.4375 1770 C377.47745948 1774.29926187 374.00337414 1778.89233816 370.5 1783.5625 C366.35040597 1789.08771943 362.13778403 1794.14003666 357.109375 1798.90234375 C353.8762077 1802.11754901 351.10702558 1805.68030433 348.2578125 1809.234375 C345.32582168 1812.82581012 342.23005146 1816.24841763 339.109375 1819.67578125 C337.25373343 1821.72042335 335.43243624 1823.78784149 333.625 1825.875 C330.21520847 1829.78994583 326.70660037 1833.61177396 323.19238281 1837.43261719 C319.49696724 1841.45179264 315.83420915 1845.49902409 312.1875 1849.5625 C309.92137684 1852.08760867 307.64809385 1854.60616628 305.375 1857.125 C297.47967719 1865.88586321 297.47967719 1865.88586321 290 1875 C286.53891463 1873.51556158 284.31486374 1871.55369767 281.6875 1868.875 C280.96949219 1868.15054688 280.25148438 1867.42609375 279.51171875 1866.6796875 C277.59336054 1864.63304095 275.76819828 1862.56517602 273.94921875 1860.43359375 C270.90146929 1856.92771804 267.68430122 1853.62065896 264.3828125 1850.35546875 C263.87742447 1849.85557434 263.37203644 1849.35567993 262.85133362 1848.84063721 C260.75429354 1846.77113221 258.65387208 1844.70515259 256.54833984 1842.64428711 C250.25818189 1836.47852188 244.35403641 1830.26656413 238.89648438 1823.33789062 C236.65575191 1820.57562825 234.21760908 1818.12733473 231.6640625 1815.65795898 C229.9334859 1813.93372986 228.34203118 1812.13773163 226.75 1810.28515625 C223.14217005 1806.13315243 219.40471764 1802.12022571 215.625 1798.125 C210.76002104 1792.96001499 205.94605909 1787.7605139 201.21875 1782.46875 C194.19243921 1774.65074222 186.99322497 1766.98831401 179.8125 1759.3125 C175.2690485 1754.45511501 170.77839194 1749.55842387 166.34765625 1744.59765625 C162.86869222 1740.74822018 159.32655295 1736.95791035 155.77905273 1733.17163086 C152.98882974 1730.18331637 150.25212855 1727.16041769 147.5703125 1724.07421875 C143.97219429 1719.9402106 140.25513969 1715.92878765 136.5 1711.9375 C135.87480469 1711.26912109 135.24960937 1710.60074219 134.60546875 1709.91210938 C130.99978413 1706.07127141 127.33753887 1702.30375768 123.57885742 1698.61230469 C121.90892037 1696.9069909 120.3566998 1695.13191119 118.8125 1693.3125 C115.2582394 1689.18057176 111.42681255 1685.36568985 107.52661133 1681.5637207 C104.80458813 1678.88890285 102.23460254 1676.14773317 99.75 1673.25 C95.42053278 1668.24494559 90.71208167 1663.6417521 86 1659 C71.11865143 1644.34076111 71.11865143 1644.34076111 65.375 1635.875 C60.62993 1629.22450228 55.04868332 1623.44542324 49.43896484 1617.53173828 C47.11017082 1615.05280145 44.88703301 1612.48745201 42.6640625 1609.9140625 C39.16707067 1605.891701 35.57140635 1601.95620434 32 1598 C30.49971321 1596.33359149 28.99971128 1594.66692647 27.5 1593 C26.38625 1591.7625 26.38625 1591.7625 25.25 1590.5 C18.5 1583 18.5 1583 16.265625 1580.515625 C14.71582661 1578.79481438 13.16362749 1577.0761637 11.609375 1575.359375 C10.07138233 1573.65841622 8.53979344 1571.95163843 7.015625 1570.23828125 C5.82597328 1568.91721451 4.61495704 1567.61404027 3.359375 1566.35546875 C-2.49314996 1560.25067978 -1.14608136 1550.69811866 -1.12534916 1542.76379144 C-1.12675148 1541.76471409 -1.1281538 1540.76563674 -1.12959861 1539.73628432 C-1.13308119 1536.38496689 -1.12944023 1533.03369553 -1.12584114 1529.68237877 C-1.12688428 1527.24625305 -1.12836553 1524.81012749 -1.13024551 1522.37400228 C-1.13333479 1517.05850958 -1.13330947 1511.74303035 -1.13056196 1506.42753844 C-1.1264667 1498.46852874 -1.12814598 1490.50952735 -1.1309446 1482.55051746 C-1.13554585 1468.98223471 -1.13539394 1455.4139557 -1.13266373 1441.84567261 C-1.12991291 1428.09101918 -1.1293318 1414.33636821 -1.13140106 1400.58171463 C-1.13159482 1399.27875524 -1.13159482 1399.27875524 -1.13179249 1397.94947344 C-1.13232578 1394.4114543 -1.13287449 1390.87343516 -1.13344277 1387.33541602 C-1.13873653 1354.35316114 -1.13908832 1321.37090792 -1.13629532 1288.3886528 C-1.13359911 1256.53304395 -1.13254026 1224.67743588 -1.13381577 1192.82182693 C-1.13389325 1190.81941829 -1.1339704 1188.81700965 -1.13404724 1186.81460101 C-1.13435774 1178.76621229 -1.13467641 1170.71782358 -1.135007 1162.66943486 C-1.13592422 1140.16215918 -1.13649469 1117.6548835 -1.13679314 1095.1476078 C-1.13680678 1094.12239262 -1.13682043 1093.09717745 -1.13683449 1092.04089514 C-1.13724403 1059.35113303 -1.13611594 1026.66137115 -1.13394356 993.97160912 C-1.13387331 992.91092997 -1.13380306 991.85025083 -1.13373068 990.75742989 C-1.13258586 973.53492086 -1.13136632 956.31241184 -1.13014051 939.08990282 C-1.12530287 871.04935512 -1.12549288 803.0088094 -1.13037109 734.96826172 C-1.13159261 717.87571907 -1.13280382 700.78317643 -1.13394356 683.69063377 C-1.13401401 682.6377247 -1.13408445 681.58481562 -1.13415704 680.5000002 C-1.13632082 647.93509748 -1.13722599 615.37019492 -1.13679314 582.80529213 C-1.13677955 581.77946227 -1.13676597 580.75363241 -1.13675197 579.6967168 C-1.13643914 557.15142466 -1.13580482 534.60613253 -1.13488263 512.06084041 C-1.13455359 503.98761977 -1.13424049 495.91439913 -1.13393192 487.84117849 C-1.13385453 485.83317611 -1.1337758 483.82517374 -1.13369573 481.81717136 C-1.13243322 450.07154029 -1.13383417 418.32591008 -1.13654587 386.58027913 C-1.13933416 353.57558373 -1.13823036 320.5708903 -1.13301457 287.56619518 C-1.13246245 283.98452802 -1.13192572 280.40286086 -1.13140106 276.8211937 C-1.13127086 275.94241128 -1.13114065 275.06362886 -1.1310065 274.15821667 C-1.12918756 261.33415278 -1.13009017 248.51009123 -1.13266373 235.68602753 C-1.13630181 216.80121148 -1.13560068 197.9164004 -1.12698364 179.03158569 C-1.12665484 178.29301157 -1.12632604 177.55443744 -1.12598728 176.79348228 C-1.09866389 117.85845216 -0.6747986 58.93138875 0 0 Z " fill="#9a1e9e" transform="translate(796,573)"/>

<path d="M0 0 C0.72452288 41.58073082 1.15629033 83.14846533 1.17106235 124.7361276 C1.17393951 132.25869573 1.18255942 139.78125551 1.19110853 147.30381895 C1.20786276 162.20567365 1.21929415 177.10752868 1.22845885 192.00938976 C1.23668157 205.32431757 1.24715188 218.63924175 1.25945473 231.95416641 C1.26028726 232.85831295 1.2611198 233.76245948 1.26197756 234.69400439 C1.26537034 238.37793921 1.26876798 242.06187402 1.27217424 245.74580882 C1.31778148 295.18135632 1.34918509 344.61691099 1.37716168 394.05247121 C1.37890389 397.12865152 1.38065417 400.20483183 1.38240622 403.28101214 C1.42819112 483.75978526 1.46765969 564.23856192 1.49443116 644.71734372 C1.5006721 663.4702546 1.5071454 682.2231654 1.51372797 700.97607616 C1.51489288 704.30016693 1.51604912 707.62425771 1.51720526 710.94834848 C1.54173798 781.1502501 1.59362601 851.35209593 1.66167997 921.55396794 C1.7114428 972.89978986 1.75729452 1024.24559943 1.77477169 1075.59144402 C1.77513285 1076.64705059 1.77549401 1077.70265717 1.77586612 1078.79025182 C1.78371305 1101.96033038 1.78934394 1125.13040894 1.79288951 1148.30048853 C1.79435058 1157.62107031 1.79610791 1166.94165203 1.79795647 1176.26223373 C1.79824803 1177.79216103 1.79824803 1177.79216103 1.79854549 1179.35299596 C1.80494134 1212.18231636 1.83623283 1245.01155451 1.88052133 1277.8408439 C1.92494857 1310.86935843 1.94426837 1343.8977859 1.92881069 1376.92632967 C1.92668 1381.48951526 1.9248324 1386.05270092 1.92315483 1390.61588669 C1.92281546 1391.51035122 1.92247609 1392.40481576 1.92212644 1393.32638528 C1.91749125 1407.48393018 1.93974374 1421.64129984 1.9732391 1435.79880051 C2.00562218 1449.7209908 2.00944843 1463.64294663 1.98297868 1477.56515203 C1.96832326 1485.72400515 1.97546844 1493.88212786 2.01515659 1502.04090166 C2.04218824 1508.10228168 2.02732996 1514.16280666 1.99636113 1520.22419911 C1.9903633 1522.6573676 1.99772459 1525.09061595 2.02023396 1527.52368771 C2.1722064 1545.08120185 -0.14897737 1560.21136228 -12.875 1573.375 C-13.63526489 1574.21248779 -13.63526489 1574.21248779 -14.41088867 1575.06689453 C-15.92387239 1576.72769986 -17.46078429 1578.36354415 -19 1580 C-19.91808631 1581.00794429 -20.83355742 1582.01827833 -21.74609375 1583.03125 C-23.41224576 1584.87745802 -25.08506123 1586.71768224 -26.765625 1588.55078125 C-28.72562883 1590.69924699 -30.65344491 1592.86883807 -32.5625 1595.0625 C-35.22761773 1598.12455016 -37.91725685 1601.16303566 -40.625 1604.1875 C-41.33914063 1604.98542969 -42.05328125 1605.78335938 -42.7890625 1606.60546875 C-44.29328815 1608.2346036 -45.83723306 1609.82774983 -47.4140625 1611.38671875 C-50.34618682 1614.34984741 -53.05174594 1617.45027375 -55.75 1620.625 C-56.27513184 1621.23891602 -56.80026367 1621.85283203 -57.34130859 1622.48535156 C-60.49998227 1626.19114406 -63.5816311 1629.9484965 -66.625 1633.75 C-70.37028507 1638.37054191 -74.43159399 1642.53034427 -78.6796875 1646.6875 C-81.22966517 1649.22889189 -83.56590613 1651.88885268 -85.90625 1654.62109375 C-88.78697696 1657.89415852 -91.76866834 1661.06866703 -94.75 1664.25 C-99.96419555 1669.81579939 -105.1430155 1675.41010199 -110.2890625 1681.0390625 C-113.18206485 1684.2025574 -116.09043671 1687.35174157 -119 1690.5 C-124.22822415 1696.15879368 -129.43844139 1701.83382885 -134.64111328 1707.51611328 C-136.92642496 1710.01164407 -139.2132958 1712.50574527 -141.5 1715 C-142.41667404 1715.99999325 -143.3333407 1716.99999324 -144.25 1718 C-160.75 1736 -160.75 1736 -162.12548828 1737.50048828 C-163.04058633 1738.49880661 -163.95562555 1739.49717886 -164.87060547 1740.49560547 C-167.18578852 1743.0217842 -169.5020401 1745.54696832 -171.8203125 1748.0703125 C-176.04766751 1752.67349765 -180.26526083 1757.28413776 -184.4375 1761.9375 C-188.43448378 1766.3920991 -192.49074409 1770.78918479 -196.55615234 1775.18115234 C-200.3147798 1779.24611811 -204.02749843 1783.34984906 -207.72265625 1787.47265625 C-210.7652294 1790.849234 -213.84118744 1794.19480481 -216.91650391 1797.54150391 C-219.77616612 1800.65651092 -222.61523037 1803.78860242 -225.4375 1806.9375 C-229.43448378 1811.3920991 -233.49074409 1815.78918479 -237.55615234 1820.18115234 C-241.3147798 1824.24611811 -245.02749843 1828.34984906 -248.72265625 1832.47265625 C-251.2980981 1835.33082242 -253.89689696 1838.16706617 -256.5 1841 C-260.62713197 1845.49303528 -264.72718736 1850.0091263 -268.80078125 1854.55078125 C-270.33572765 1856.26021534 -271.87515116 1857.96563528 -273.41796875 1859.66796875 C-274.20816406 1860.54066406 -274.99835937 1861.41335938 -275.8125 1862.3125 C-276.52019531 1863.09238281 -277.22789062 1863.87226563 -277.95703125 1864.67578125 C-280.05169744 1867.05881449 -282.03711035 1869.5077918 -284 1872 C-287.96828023 1870.43673809 -290.41597223 1867.67893988 -293.1875 1864.5625 C-293.67162354 1864.02608887 -294.15574707 1863.48967773 -294.65454102 1862.93701172 C-298.44491932 1858.70389332 -302.0568255 1854.3391111 -305.62109375 1849.9140625 C-308.35905153 1846.56017662 -311.17219888 1843.27810205 -314 1840 C-318.31842765 1834.98848301 -322.54907502 1829.91780614 -326.71875 1824.78125 C-329.29842888 1821.63616205 -331.92631983 1818.53520324 -334.5625 1815.4375 C-338.43247486 1810.88720681 -342.19960089 1806.27166922 -345.91015625 1801.58984375 C-348.83349465 1797.9670898 -351.85047066 1794.42694792 -354.86767578 1790.88232422 C-357.74603485 1787.49631105 -360.57798585 1784.07892756 -363.375 1780.625 C-366.94336062 1776.24246798 -370.6054079 1771.95239736 -374.3125 1767.6875 C-374.86518555 1767.05158936 -375.41787109 1766.41567871 -375.98730469 1765.76049805 C-378.18290162 1763.23607188 -380.37951392 1760.71253093 -382.57666016 1758.18945312 C-388.5451373 1751.32390267 -394.34379338 1744.37302465 -399.921875 1737.18603516 C-403.50547688 1732.58389513 -407.22901677 1728.11895886 -411.01586914 1723.68334961 C-413.88565249 1720.32151553 -416.71077326 1716.9294585 -419.5 1713.5 C-423.24852646 1708.8946675 -427.07084246 1704.35795556 -430.91625977 1699.83374023 C-433.7954532 1696.44045891 -436.63204237 1693.01732214 -439.4375 1689.5625 C-443.39508188 1684.69870975 -447.46542446 1679.94118769 -451.55834961 1675.19165039 C-455.33334391 1670.8019965 -459.00728461 1666.33885229 -462.65625 1661.84375 C-465.3930353 1658.52311717 -468.19160329 1655.2600446 -471 1652 C-479.28192257 1642.35845534 -487.13813476 1632.57033514 -494.60327148 1622.28198242 C-497.50454527 1618.30353233 -500.4475547 1614.39958 -503.6015625 1610.6171875 C-504.16383545 1609.94075195 -504.7261084 1609.26431641 -505.30541992 1608.56738281 C-506.36789106 1607.30290707 -507.44305171 1606.04895118 -508.5324707 1604.80761719 C-510.57855779 1602.37058692 -511.96122311 1600.71571055 -512.13671875 1597.4765625 C-510.58139865 1594.08799569 -508.34552901 1591.49367532 -505.875 1588.75 C-504.86445579 1587.59499927 -503.85534141 1586.43874598 -502.84765625 1585.28125 C-502.11119873 1584.44013672 -502.11119873 1584.44013672 -501.35986328 1583.58203125 C-499.59659865 1581.53069287 -497.94737634 1579.40454701 -496.3125 1577.25 C-492.76868659 1572.62358966 -488.90118831 1568.32523052 -485 1564 C-483.78865452 1562.6276529 -482.5801983 1561.25274871 -481.375 1559.875 C-480.81167969 1559.23304687 -480.24835937 1558.59109375 -479.66796875 1557.9296875 C-478.53085052 1556.61414557 -477.4089629 1555.28532065 -476.30078125 1553.9453125 C-475.76839844 1553.30335937 -475.23601563 1552.66140625 -474.6875 1552 C-474.21699219 1551.4225 -473.74648437 1550.845 -473.26171875 1550.25 C-472 1549 -472 1549 -470 1549 C-470 1548.01 -470 1547.02 -470 1546 C-469.34 1546 -468.68 1546 -468 1546 C-467.74605469 1545.41734375 -467.49210937 1544.8346875 -467.23046875 1544.234375 C-465.86679667 1541.75811967 -464.35774797 1540.19479374 -462.3125 1538.25 C-459.67915859 1535.6826099 -457.14878797 1533.10028061 -454.75 1530.3125 C-451.61965453 1526.6747241 -448.38758369 1523.1436423 -445.125 1519.625 C-440.03203636 1514.12848474 -434.9992432 1508.58203294 -430 1503 C-428.50043381 1501.332943 -427.00042947 1499.66628005 -425.5 1498 C-424.7575 1497.17371094 -424.015 1496.34742187 -423.25 1495.49609375 C-421.75517311 1493.83777017 -420.2551942 1492.18407559 -418.75 1490.53515625 C-414.9358485 1486.34356268 -411.23985671 1482.10394348 -407.6875 1477.6875 C-404.27562841 1473.46582991 -400.70526443 1469.46088041 -397 1465.5 C-385.08509741 1452.75756268 -385.08509741 1452.75756268 -378 1437 C-377.65952641 1436.11965918 -377.31905281 1435.23931836 -376.96826184 1434.33230054 C-375.85924727 1430.51559548 -375.72528161 1427.01230265 -375.75390434 1423.07772255 C-375.75159665 1422.29414759 -375.74928897 1421.51057263 -375.74691135 1420.70325297 C-375.74161144 1418.07378107 -375.75059538 1415.44455338 -375.75949097 1412.81509399 C-375.7586189 1410.91250691 -375.7568679 1409.00992006 -375.75431263 1407.10733449 C-375.74983536 1401.87613595 -375.75784806 1396.64501913 -375.76786876 1391.413831 C-375.77649545 1385.77380197 -375.77358365 1380.13377766 -375.77206421 1374.4937439 C-375.77101486 1364.72098318 -375.77729666 1354.94824915 -375.78853989 1345.17549515 C-375.80478519 1331.04568827 -375.8100019 1316.9158943 -375.81251587 1302.78607909 C-375.81689449 1279.86209754 -375.83019097 1256.93813337 -375.84912109 1234.01416016 C-375.8674901 1211.74397862 -375.88165726 1189.47380088 -375.89013672 1167.20361328 C-375.89039977 1166.51713672 -375.89066282 1165.83066016 -375.89093385 1165.12338127 C-375.89357089 1158.22949506 -375.89612252 1151.33560881 -375.89861157 1144.44172254 C-375.91949337 1086.62780528 -375.95478562 1028.81390311 -376 971 C-385.41054046 974.46077626 -391.29809251 984.26107162 -397.17626953 992.08666992 C-400.53193486 996.50838319 -404.17289646 1000.57586799 -407.96679688 1004.62304688 C-410.93031436 1007.79555713 -413.72227357 1011.05081866 -416.4375 1014.4375 C-420.28110057 1019.21621628 -424.36960164 1023.69157687 -428.55834961 1028.16381836 C-431.67553945 1031.51099327 -434.63573798 1034.93005023 -437.5 1038.5 C-440.84301959 1042.6666621 -444.35115137 1046.60419812 -448 1050.5 C-452.45874444 1055.26088994 -456.6379783 1060.1646782 -460.72265625 1065.25390625 C-463.21826547 1068.26319147 -465.83766805 1071.13937022 -468.5 1074 C-472.78960407 1078.60998943 -476.80411122 1083.37783516 -480.75390625 1088.28515625 C-483.0883059 1091.10673495 -485.51990598 1093.80590712 -488 1096.5 C-491.29331699 1100.07792463 -494.44651321 1103.71539666 -497.5 1107.5 C-501.33719031 1112.25595419 -505.39385101 1116.75504801 -509.53125 1121.25 C-511.94378104 1123.93737634 -514.2325621 1126.68965444 -516.5 1129.5 C-520.33719031 1134.25595419 -524.39385101 1138.75504801 -528.53125 1143.25 C-530.94378104 1145.93737634 -533.2325621 1148.68965444 -535.5 1151.5 C-539.33835414 1156.25739668 -543.39622359 1160.75783918 -547.53515625 1165.25390625 C-549.92707297 1167.91875166 -552.19254884 1170.64831825 -554.4375 1173.4375 C-557.71349629 1177.50345284 -561.13010253 1181.37077149 -564.6875 1185.1875 C-568.18998381 1188.94739671 -571.41344662 1192.77002984 -574.4140625 1196.94140625 C-577.23586122 1200.60418439 -580.42331553 1203.94207147 -583.5546875 1207.33984375 C-585.59089775 1209.55495426 -587.58954554 1211.79130824 -589.5625 1214.0625 C-592.17701942 1217.07073528 -594.82951656 1220.04130249 -597.5 1223 C-602.33227276 1228.36016811 -607.09818856 1233.77009574 -611.78515625 1239.2578125 C-612.81507479 1240.46356676 -613.84502353 1241.66929523 -614.875 1242.875 C-615.39465332 1243.48351807 -615.91430664 1244.09203613 -616.44970703 1244.71899414 C-619.47892533 1248.25623858 -622.55148583 1251.74392577 -625.6875 1255.1875 C-628.6791816 1258.47942205 -631.52524423 1261.84591307 -634.3125 1265.3125 C-637.6964126 1269.50407119 -641.24572746 1273.45886236 -644.9375 1277.375 C-649.94212474 1282.690921 -654.40924937 1288.25448307 -658.74609375 1294.125 C-660.99234967 1296.99024152 -663.39325086 1299.46303785 -666 1302 C-671.41062764 1307.78581714 -676.50343446 1313.79270658 -681.484375 1319.94921875 C-684.42925551 1323.52057229 -687.45735149 1327.01197894 -690.5 1330.5 C-695.78952109 1336.57147006 -700.93082453 1342.74286366 -706 1349 C-714.06577089 1358.94199948 -722.24281031 1368.65899767 -731 1378 C-736.36254507 1383.72893014 -741.47656215 1389.52618473 -746.25 1395.75 C-751.88108699 1403.08218681 -758.15181008 1409.72820748 -764.515625 1416.42285156 C-766.85233973 1418.90561097 -769.08262725 1421.47363422 -771.3046875 1424.05859375 C-773.45155051 1426.51709816 -775.66537132 1428.910289 -777.875 1431.3125 C-781.18336914 1434.93523905 -784.36012358 1438.61692891 -787.4375 1442.4375 C-790.65945291 1446.43226701 -794.00680102 1450.24529425 -797.5 1454 C-801.72157009 1458.54255499 -805.70224287 1463.22942034 -809.6015625 1468.05078125 C-812.47348742 1471.58221988 -815.37806904 1475.08290588 -818.3125 1478.5625 C-819.06841431 1479.47491455 -819.06841431 1479.47491455 -819.83959961 1480.40576172 C-824.65591067 1486.08554843 -824.65591067 1486.08554843 -828 1487 C-830.83423544 1486.8049838 -832.43550418 1486.46861256 -834.6328125 1484.64453125 C-835.12523438 1484.03996094 -835.61765625 1483.43539062 -836.125 1482.8125 C-836.71152344 1482.1009375 -837.29804688 1481.389375 -837.90234375 1480.65625 C-838.59457031 1479.7796875 -839.28679688 1478.903125 -840 1478 C-840.43715332 1477.44957031 -840.87430664 1476.89914062 -841.32470703 1476.33203125 C-843.71359972 1473.32204279 -846.08896183 1470.302024 -848.44921875 1467.26953125 C-852.98955211 1461.42989019 -852.98955211 1461.42989019 -858 1456 C-859.30590589 1454.42839031 -860.59557724 1452.84324343 -861.875 1451.25 C-867.22298019 1444.67120427 -872.78710253 1438.29042462 -878.35351562 1431.89648438 C-880.93637409 1428.92144811 -883.50056914 1425.9305594 -886.0625 1422.9375 C-886.55339111 1422.36410889 -887.04428223 1421.79071777 -887.55004883 1421.19995117 C-888.53885203 1420.04469482 -889.52754049 1418.88934024 -890.51611328 1417.73388672 C-893.00895521 1414.82105958 -895.50459434 1411.91063078 -898 1409 C-900.98964835 1405.5128866 -903.97875858 1402.02532174 -906.96484375 1398.53515625 C-907.95571564 1397.37759259 -908.94660106 1396.22004051 -909.9375 1395.0625 C-910.42484619 1394.49265381 -910.91219238 1393.92280762 -911.41430664 1393.33569336 C-914.08297779 1390.21984184 -916.76638891 1387.11794689 -919.46875 1384.03125 C-920.04761963 1383.36859131 -920.62648926 1382.70593262 -921.22290039 1382.02319336 C-922.32875642 1380.75861558 -923.43713487 1379.49623705 -924.54858398 1378.23657227 C-927.05095197 1375.37270268 -929.39878994 1372.49796683 -931.56640625 1369.37109375 C-933.75568752 1366.23154159 -936.26905315 1363.68994164 -939 1361 C-941.26400893 1358.37866826 -943.44233308 1355.68919046 -945.625 1353 C-946.87037065 1351.47597133 -948.1164723 1349.95253972 -949.36328125 1348.4296875 C-949.97768066 1347.67913086 -950.59208008 1346.92857422 -951.22509766 1346.15527344 C-953.72476297 1343.11991644 -956.26353198 1340.11897516 -958.8125 1337.125 C-962.06317544 1333.30435914 -965.27472898 1329.45644926 -968.4375 1325.5625 C-972.39572956 1320.69791376 -976.46649061 1315.93937822 -980.56054688 1311.18945312 C-983.57231987 1307.68783649 -986.53051691 1304.15222407 -989.4375 1300.5625 C-993.03637323 1296.12759088 -996.74761953 1291.80459727 -1000.5 1287.5 C-1008.12360796 1278.74441173 -1015.42006672 1269.76292439 -1022.56298828 1260.61303711 C-1026.88114176 1255.10415616 -1031.33679205 1249.71352011 -1035.80297852 1244.32446289 C-1039.93730713 1239.32398026 -1043.96119399 1234.25022952 -1047.93505859 1229.12182617 C-1051.85103646 1224.10579734 -1055.98591943 1219.29114716 -1060.20556641 1214.52856445 C-1062.39818202 1212.0250775 -1063.93582309 1210.19253073 -1065 1207 C-1060.11622716 1198.12621666 -1052.32032742 1190.45868739 -1045.65820312 1182.89208984 C-1043.07977401 1179.94997771 -1040.54013982 1176.97515879 -1038 1174 C-1020.9795042 1154.11740163 -1020.9795042 1154.11740163 -1013.75 1146.25 C-1009.82321215 1141.96393942 -1006.13062601 1137.53794373 -1002.48046875 1133.015625 C-999.55031405 1129.45329519 -996.53230943 1125.97534874 -993.5 1122.5 C-988.97847415 1117.31341003 -984.5595815 1112.06219354 -980.21875 1106.72265625 C-972.90974728 1097.75368636 -965.36444026 1089.1173741 -957.39013672 1080.73168945 C-951.08029125 1074.08943364 -945.12337164 1067.16287945 -939.1875 1060.1875 C-935.46705784 1055.82642868 -931.69379448 1051.53234976 -927.8125 1047.3125 C-923.76579031 1042.90378433 -919.97246285 1038.33934325 -916.21484375 1033.68359375 C-913.33519113 1030.19449084 -910.29306124 1026.87003079 -907.24609375 1023.52734375 C-904.93812402 1020.93037607 -902.74444137 1018.26595987 -900.5625 1015.5625 C-896.70174863 1010.788597 -892.62562925 1006.26611572 -888.46875 1001.75 C-886.05621896 999.06262366 -883.7674379 996.31034556 -881.5 993.5 C-877.66280969 988.74404581 -873.60614899 984.24495199 -869.46875 979.75 C-867.05621896 977.06262366 -864.7674379 974.31034556 -862.5 971.5 C-858.66280969 966.74404581 -854.60614899 962.24495199 -850.46875 957.75 C-848.05621896 955.06262366 -845.7674379 952.31034556 -843.5 949.5 C-839.66280969 944.74404581 -835.60614899 940.24495199 -831.46875 935.75 C-829.05621896 933.06262366 -826.7674379 930.31034556 -824.5 927.5 C-820.66280969 922.74404581 -816.60614899 918.24495199 -812.46875 913.75 C-810.05621896 911.06262366 -807.7674379 908.31034556 -805.5 905.5 C-801.66280969 900.74404581 -797.60614899 896.24495199 -793.46875 891.75 C-791.05621896 889.06262366 -788.7674379 886.31034556 -786.5 883.5 C-782.66280969 878.74404581 -778.60614899 874.24495199 -774.46875 869.75 C-772.05621896 867.06262366 -769.7674379 864.31034556 -767.5 861.5 C-763.61012866 856.6823325 -759.51549488 852.09892848 -755.328125 847.5390625 C-749.67136183 841.3697738 -744.26428807 834.9818325 -738.82250977 828.62353516 C-735.08365947 824.25722177 -731.32868196 819.90525431 -727.5625 815.5625 C-727.0257666 814.94334717 -726.4890332 814.32419434 -725.93603516 813.6862793 C-723.16322017 810.48913833 -720.38657662 807.29539868 -717.60546875 804.10546875 C-712.09137488 797.77364394 -706.65859614 791.40179523 -701.375 784.875 C-697.92924669 780.70382494 -694.36636942 776.63726361 -690.80786133 772.56225586 C-687.52066114 768.78774139 -684.32148139 764.96509168 -681.1875 761.0625 C-678.0070513 757.12893959 -674.63769869 753.58943645 -671.01171875 750.0703125 C-668.7854702 747.77922176 -666.8084707 745.36905446 -664.8125 742.875 C-661.21898951 738.3939731 -657.43607607 734.17639943 -653.5 730 C-648.83264925 725.04295625 -644.4341788 719.96168943 -640.17578125 714.64453125 C-637.869683 711.84160752 -635.45848469 709.16996725 -633 706.5 C-628.96366945 702.10971431 -625.15969471 697.5882438 -621.4140625 692.94921875 C-618.16173504 688.97590607 -614.80765032 685.09432992 -611.45288086 681.20751953 C-608.29832507 677.5430907 -605.2203861 673.82906554 -602.1875 670.0625 C-599.188085 666.36592368 -596.07369497 662.96089193 -592.66015625 659.6484375 C-589.10429313 656.11767459 -585.9191023 652.24656538 -582.66650391 648.43896484 C-575.34691949 639.87047175 -567.97974179 631.37116254 -560.31640625 623.10546875 C-555.08303984 617.45697303 -550.07729667 611.71724738 -545.24609375 605.71484375 C-542.11479885 601.93006122 -538.77995294 598.34694276 -535.453125 594.734375 C-533.12283732 592.13692058 -530.92752832 589.47594286 -528.75 586.75 C-524.46899053 581.43669038 -519.84667142 576.51002982 -515.16210938 571.55664062 C-510.9411571 567.07044974 -506.99569774 562.43374457 -503.1484375 557.62109375 C-500.0187091 553.8028251 -496.68024018 550.18846235 -493.33984375 546.5546875 C-490.7720803 543.75115278 -488.27103125 540.89655125 -485.77734375 538.02734375 C-483.70640513 535.66510827 -481.60487152 533.33204147 -479.5 531 C-474.66772724 525.63983189 -469.90181144 520.22990426 -465.21484375 514.7421875 C-459.23484526 507.74060594 -453.18059963 500.82615549 -447 494 C-443.29880601 489.87980292 -439.74291286 485.71111033 -436.375 481.3125 C-433.34555766 477.37422495 -430.0557833 473.95195586 -426.453125 470.53125 C-422.06144872 466.26044555 -418.23468721 461.67146419 -414.39453125 456.90234375 C-411.16743309 452.99086915 -407.75355808 449.26909233 -404.32421875 445.53515625 C-401.15328582 442.07644117 -398.07247753 438.54607715 -395 435 C-394.02223898 433.87621197 -393.04436362 432.75252341 -392.06640625 431.62890625 C-386.71376374 425.47252512 -381.38494911 419.29835162 -376.125 413.0625 C-369.91496424 405.70481452 -363.5698301 398.50745804 -357.04907227 391.42382812 C-353.91431346 388.01369339 -350.84254734 384.55819009 -347.80859375 381.05859375 C-345.5698875 378.5104335 -343.28589788 376.00589407 -341 373.5 C-337.54356229 369.70990918 -334.13156146 365.88943967 -330.76953125 362.015625 C-328.74885044 359.71392236 -326.68687382 357.45235621 -324.625 355.1875 C-321.53363199 351.76770672 -318.57540968 348.28041476 -315.6875 344.6875 C-311.274613 339.23128595 -306.55528972 334.11384549 -301.7734375 328.984375 C-295.9277837 322.71308575 -290.41029485 316.15324628 -284.83740234 309.640625 C-280.42620847 304.48806552 -275.98807751 299.35923008 -271.54052734 294.23803711 C-271.03473145 293.65546143 -270.52893555 293.07288574 -270.0078125 292.47265625 C-269.51055664 291.9017627 -269.01330078 291.33086914 -268.50097656 290.74267578 C-267.47606291 289.55272236 -266.46282826 288.35263482 -265.45996094 287.14404297 C-263.23329668 284.47332474 -261.1797728 282.14266373 -258.4453125 279.97265625 C-255.38595292 277.50464253 -253.20336809 274.56685741 -250.875 271.4375 C-246.49728993 265.69838333 -241.84078978 260.70045998 -236.65234375 255.67578125 C-231.59144493 250.57016168 -226.98838696 244.98258045 -223 239 C-222.34 239 -221.68 239 -221 239 C-221 238.34 -221 237.68 -221 237 C-219.34066573 235.65755248 -217.67267647 234.32578618 -216 233 C-214.62231207 231.41242992 -213.29085205 229.78394658 -212 228.125 C-208.30065231 223.50390849 -204.42418685 219.12951164 -200.375 214.8125 C-199.52518555 213.90576538 -199.52518555 213.90576538 -198.65820312 212.98071289 C-198.10841797 212.39410889 -197.55863281 211.80750488 -196.9921875 211.203125 C-193.56648956 207.54764178 -190.2644627 203.79972885 -187 200 C-184.87702369 197.53991452 -182.75140341 195.08212353 -180.625 192.625 C-179.77687744 191.64466797 -179.77687744 191.64466797 -178.91162109 190.64453125 C-174.98171268 186.11045751 -170.9984448 181.62939833 -166.96875 177.18359375 C-165.16465216 175.18262015 -163.38992983 173.1604969 -161.625 171.125 C-158.21520847 167.21005417 -154.70660037 163.38822604 -151.19238281 159.56738281 C-146.75802997 154.74453089 -142.37497099 149.87675977 -138 145 C-136.50028872 143.33307353 -135.00028679 141.66640851 -133.5 140 C-132.76007812 139.17757812 -132.02015625 138.35515625 -131.2578125 137.5078125 C-129.73291756 135.81407106 -128.20684598 134.12138831 -126.6796875 132.4296875 C-123.28127068 128.66262885 -119.8918339 124.89084414 -116.5625 121.0625 C-112.91062947 116.86835635 -109.15733816 112.76905708 -105.41015625 108.66015625 C-102.83006864 105.81244205 -100.29798144 102.92755982 -97.77734375 100.02734375 C-95.70640513 97.66510827 -93.60487152 95.33204147 -91.5 93 C-86.68985199 87.66437363 -81.94019763 82.28413119 -77.28515625 76.8125 C-71.53480487 70.05922411 -65.70662644 63.41147093 -59.66796875 56.9140625 C-57.64840605 54.7082151 -55.68482644 52.48023664 -53.734375 50.21484375 C-49.70395443 45.59240562 -45.40857631 41.26157086 -41.0625 36.9375 C-40.30259766 36.17373047 -39.54269531 35.40996094 -38.75976562 34.62304688 C-34.58654709 30.45695595 -30.32836451 26.45815396 -25.86010742 22.6105957 C-23.05394554 20.18084771 -20.34152899 17.65394695 -17.625 15.125 C-13.51399785 11.31780212 -9.39761782 7.51732049 -5.25 3.75 C-4.45078125 3.02296875 -3.6515625 2.2959375 -2.828125 1.546875 C-1 0 -1 0 0 0 Z " fill="#9a1e9e" transform="translate(3111,576)"/>
</g>
</svg>






